<svg width="24" height="24" viewBox="0 0 24 24" fill="none" xmlns="http://www.w3.org/2000/svg">
<path d="M20 4.99999V19M15.935 12.626C15.681 13.837 14.327 14.708 11.62 16.448C8.675 18.341 7.203 19.288 6.01 18.923C5.60381 18.7967 5.23172 18.5796 4.922 18.288C4 17.418 4 15.612 4 12C4 8.38799 4 6.58199 4.922 5.71199C5.23201 5.4203 5.60445 5.20313 6.011 5.07699C7.203 4.71199 8.675 5.65899 11.62 7.55199C14.327 9.29199 15.68 10.162 15.935 11.374C16.022 11.786 16.022 12.214 15.935 12.626Z" stroke="white" stroke-width="1.5" stroke-linecap="round" stroke-linejoin="round"/>
</svg>
