<svg width="24" height="24" viewBox="0 0 24 24" fill="none" xmlns="http://www.w3.org/2000/svg">
<path d="M18.5 3.75C18.5 3.55109 18.579 3.36032 18.7197 3.21967C18.8603 3.07902 19.0511 3 19.25 3C19.4489 3 19.6397 3.07902 19.7804 3.21967C19.921 3.36032 20 3.55109 20 3.75V20.25C20 20.4489 19.921 20.6397 19.7804 20.7803C19.6397 20.921 19.4489 21 19.25 21C19.0511 21 18.8603 20.921 18.7197 20.7803C18.579 20.6397 18.5 20.4489 18.5 20.25V3.75ZM12.261 3.31C13.423 2.514 15.001 3.345 15.001 4.753V19.248C15.001 20.661 13.411 21.492 12.251 20.685L1.75303 13.383C1.52051 13.2212 1.33073 13.0054 1.19999 12.7542C1.06926 12.5029 1.00147 12.2236 1.00245 11.9404C1.00344 11.6571 1.07316 11.3783 1.20564 11.128C1.33812 10.8776 1.52939 10.6631 1.76303 10.503L12.261 3.31ZM13.501 4.753C13.5011 4.70739 13.4886 4.66263 13.4651 4.62358C13.4415 4.58453 13.4077 4.55267 13.3673 4.53145C13.3269 4.51024 13.2815 4.50047 13.236 4.50321C13.1905 4.50595 13.1466 4.52109 13.109 4.547L2.61103 11.74C2.5775 11.7628 2.55003 11.7934 2.53098 11.8292C2.51193 11.865 2.50187 11.9049 2.50167 11.9455C2.50147 11.986 2.51114 12.026 2.52985 12.062C2.54855 12.098 2.57572 12.1289 2.60903 12.152L13.108 19.453C13.1455 19.4789 13.1893 19.494 13.2348 19.4968C13.2802 19.4996 13.3255 19.4899 13.3659 19.4688C13.4062 19.4477 13.44 19.416 13.4637 19.3771C13.4873 19.3382 13.4999 19.2935 13.5 19.248L13.501 4.753Z" fill="white"/>
</svg>
